<?xml version="1.0" encoding="utf-8"?>
<!-- Generator: Adobe Illustrator 25.2.1, SVG Export Plug-In . SVG Version: 6.00 Build 0)  -->
<svg version="1.1" id="Capa_1" xmlns="http://www.w3.org/2000/svg" xmlns:xlink="http://www.w3.org/1999/xlink" x="0px" y="0px"
	 viewBox="0 0 85.29 85.29" style="enable-background:new 0 0 85.29 85.29;" xml:space="preserve">
<path d="M42.65,9.13C25.72,9.13,12,22.86,12,39.78c0,14.41,9.95,26.5,23.36,29.77V44.21h-6.06v-9.39h6.06c0,0,0-1.33,0-7.38
	c0-6.94,3.91-10.55,12.58-10.55c1.42,0,8.07,0,8.07,0v9.62c0,0-4.51,0-6.3,0c-2.23,0-2.68,0.86-2.68,3.05c0,1.83,0,5.28,0,5.28H56
	l-0.86,9.26h-8.13v26.02C61.88,67.99,73.3,55.23,73.3,39.78C73.3,22.86,59.57,9.13,42.65,9.13z"/>
</svg>
