<?xml version="1.0" encoding="utf-8"?>
<!-- Generator: Adobe Illustrator 25.2.1, SVG Export Plug-In . SVG Version: 6.00 Build 0)  -->
<svg version="1.1" id="Capa_1" xmlns="http://www.w3.org/2000/svg" xmlns:xlink="http://www.w3.org/1999/xlink" x="0px" y="0px"
	 viewBox="0 0 85.29 85.29" style="enable-background:new 0 0 85.29 85.29;" xml:space="preserve">
<style type="text/css">
	.st0{fill:#222221;}
</style>
<g id="XMLID_2392_">
	<g id="XMLID_2393_">
		<path id="XMLID_2398_" class="st0" d="M42.65,14.52c9.16,0,10.25,0.03,13.87,0.2c3.35,0.15,5.16,0.71,6.37,1.18
			c1.6,0.62,2.74,1.37,3.94,2.57c1.2,1.2,1.94,2.34,2.57,3.95c0.47,1.21,1.03,3.03,1.18,6.37c0.16,3.62,0.2,4.7,0.2,13.87
			c0,9.16-0.04,10.25-0.2,13.87c-0.15,3.35-0.71,5.16-1.18,6.37c-0.62,1.6-1.37,2.74-2.57,3.95c-1.2,1.2-2.34,1.94-3.94,2.57
			c-1.21,0.47-3.03,1.03-6.37,1.18c-3.62,0.16-4.7,0.2-13.87,0.2c-9.16,0-10.25-0.03-13.87-0.2c-3.35-0.15-5.16-0.71-6.37-1.18
			c-1.6-0.62-2.74-1.37-3.95-2.57c-1.2-1.2-1.94-2.34-2.57-3.95c-0.47-1.21-1.03-3.03-1.18-6.37c-0.16-3.62-0.2-4.7-0.2-13.87
			c0-9.16,0.03-10.25,0.2-13.87c0.15-3.35,0.71-5.16,1.18-6.37c0.62-1.6,1.37-2.74,2.57-3.95c1.2-1.2,2.34-1.94,3.95-2.57
			c1.21-0.47,3.03-1.03,6.37-1.18C32.4,14.55,33.49,14.52,42.65,14.52 M42.65,8.33c-9.32,0-10.49,0.04-14.15,0.21
			c-3.65,0.17-6.15,0.75-8.33,1.6c-2.26,0.88-4.17,2.05-6.08,3.96c-1.91,1.91-3.08,3.82-3.96,6.08c-0.85,2.18-1.43,4.68-1.6,8.33
			c-0.17,3.66-0.21,4.83-0.21,14.15c0,9.32,0.04,10.49,0.21,14.15c0.17,3.65,0.75,6.15,1.6,8.33c0.88,2.26,2.05,4.17,3.96,6.08
			c1.91,1.91,3.82,3.08,6.08,3.96c2.18,0.85,4.68,1.43,8.33,1.59c3.66,0.17,4.83,0.21,14.15,0.21c9.32,0,10.49-0.04,14.15-0.21
			c3.65-0.17,6.15-0.75,8.33-1.59c2.26-0.88,4.17-2.05,6.08-3.96c1.91-1.91,3.08-3.82,3.96-6.08c0.85-2.18,1.43-4.68,1.6-8.33
			c0.17-3.66,0.21-4.83,0.21-14.15c0-9.32-0.04-10.49-0.21-14.15c-0.17-3.65-0.75-6.15-1.6-8.33c-0.88-2.26-2.05-4.17-3.96-6.08
			c-1.91-1.91-3.82-3.08-6.08-3.96c-2.18-0.85-4.68-1.43-8.33-1.6C53.13,8.37,51.97,8.33,42.65,8.33"/>
		<path id="XMLID_2395_" class="st0" d="M42.65,25.03c-9.73,0-17.62,7.89-17.62,17.62s7.89,17.62,17.62,17.62
			c9.73,0,17.62-7.89,17.62-17.62S52.38,25.03,42.65,25.03 M42.65,54.09c-6.32,0-11.44-5.12-11.44-11.44
			c0-6.32,5.12-11.44,11.44-11.44c6.32,0,11.44,5.12,11.44,11.44C54.08,48.96,48.96,54.09,42.65,54.09"/>
		<path id="XMLID_2394_" class="st0" d="M65.08,24.33c0,2.27-1.84,4.12-4.12,4.12c-2.27,0-4.12-1.84-4.12-4.12s1.84-4.12,4.12-4.12
			C63.24,20.21,65.08,22.06,65.08,24.33"/>
	</g>
</g>
</svg>
