<?xml version="1.0" encoding="utf-8"?>
<!-- Generator: Adobe Illustrator 25.2.1, SVG Export Plug-In . SVG Version: 6.00 Build 0)  -->
<svg version="1.1" id="Capa_1" xmlns="http://www.w3.org/2000/svg" xmlns:xlink="http://www.w3.org/1999/xlink" x="0px" y="0px"
	 viewBox="0 0 85.29 85.29" style="enable-background:new 0 0 85.29 85.29;" xml:space="preserve">
<style type="text/css">
	.st0{fill:#FFFFFF;}
</style>
<circle cx="42.65" cy="39.78" r="30.65"/>
<g>
	<path class="st0" d="M59.74,21.68c-0.02-0.02-0.03-0.03-0.05-0.04c-0.3-0.2-0.68-0.23-0.98-0.09l-38.5,17.54c0,0-0.01,0-0.01,0.01
		c-0.34,0.18-0.54,0.46-0.54,0.78c0,0.41,0.23,0.75,0.58,0.85c0.67,0.28,1.69,0.73,2.86,1.25c4.36,1.95,8.07,3.56,9.22,3.56
		c0.17,0,0.31-0.03,0.41-0.11c0.01-0.01,0.02-0.01,0.02-0.02l21.83-18.16l-20.32,20.5c-0.16,0.16-0.22,0.45-0.22,0.66
		c0,0,0,0.01,0,0.01l0.38,8.82c0,0.4,0.29,0.76,0.67,0.85c0.03,0.01,0.05,0.01,0.08,0.01h0.18c0.28,0,0.54-0.1,0.71-0.27
		c0.03-0.03,0.05-0.05,0.06-0.09l4.22-8.5l8.21,5.38c0.09,0.06,0.24,0.15,0.42,0.15c0.16,0,0.29-0.06,0.39-0.12
		c0.26-0.1,0.45-0.29,0.53-0.56L60,22.71c0.01-0.03,0.02-0.06,0.03-0.09C60.09,22.27,59.99,21.93,59.74,21.68z"/>
</g>
</svg>
