<?xml version="1.0" encoding="utf-8"?>
<!-- Generator: Adobe Illustrator 25.2.1, SVG Export Plug-In . SVG Version: 6.00 Build 0)  -->
<svg version="1.1" id="Capa_1" xmlns="http://www.w3.org/2000/svg" xmlns:xlink="http://www.w3.org/1999/xlink" x="0px" y="0px"
	 viewBox="0 0 85.29 85.29" style="enable-background:new 0 0 85.29 85.29;" xml:space="preserve">
<style type="text/css">
	.st0{fill:#222221;}
</style>
<g id="XMLID_2287_">
	<path id="XMLID_2288_" class="st0" d="M42.65,4.41c-21.12,0-38.24,17.12-38.24,38.24c0,21.12,17.12,38.24,38.24,38.24
		c21.12,0,38.24-17.12,38.24-38.24C80.88,21.53,63.76,4.41,42.65,4.41z M60.24,59.66c-0.77,1.15-2.1,1.53-3.25,0.76
		c-8.99-5.54-20.26-6.69-33.65-3.63c-1.34,0.38-2.48-0.57-2.87-1.72c-0.38-1.34,0.57-2.49,1.72-2.87
		c14.53-3.25,27.15-1.91,37.09,4.21C60.62,56.99,60.81,58.51,60.24,59.66z M64.82,49.15c-0.96,1.34-2.68,1.91-4.01,0.96
		c-10.32-6.31-26-8.22-38.04-4.4c-1.53,0.38-3.25-0.38-3.63-1.91c-0.38-1.53,0.38-3.25,1.91-3.63c13.96-4.21,31.16-2.1,43.02,5.16
		C65.21,45.9,65.78,47.81,64.82,49.15z M65.21,38.44c-12.23-7.26-32.69-8.03-44.35-4.4c-1.91,0.57-3.82-0.57-4.4-2.29
		c-0.57-1.91,0.57-3.82,2.29-4.4c13.57-4.01,35.94-3.25,50.09,5.16c1.72,0.96,2.29,3.25,1.34,4.97
		C69.22,38.82,66.93,39.4,65.21,38.44z"/>
</g>
</svg>
