<?xml version="1.0" encoding="utf-8"?>
<!-- Generator: Adobe Illustrator 25.2.1, SVG Export Plug-In . SVG Version: 6.00 Build 0)  -->
<svg version="1.1" id="Capa_1" xmlns="http://www.w3.org/2000/svg" xmlns:xlink="http://www.w3.org/1999/xlink" x="0px" y="0px"
	 viewBox="0 0 85.29 85.29" style="enable-background:new 0 0 85.29 85.29;" xml:space="preserve">
<style type="text/css">
	.st0{fill:#222221;}
</style>
<g id="XMLID_2407_">
	<path id="XMLID_2408_" class="st0" d="M10.78,62.67c5.79,3.71,12.66,5.87,20.04,5.87c24.27,0,37.99-20.5,37.16-38.89
		c2.55-1.84,4.77-4.14,6.52-6.77c-2.35,1.04-4.87,1.74-7.51,2.06c2.7-1.61,4.77-4.18,5.75-7.23c-2.53,1.5-5.32,2.59-8.3,3.17
		c-2.39-2.54-5.78-4.13-9.54-4.13c-8.44,0-14.64,7.87-12.73,16.05c-10.87-0.54-20.5-5.75-26.95-13.66
		c-3.43,5.88-1.78,13.57,4.05,17.46c-2.14-0.07-4.16-0.66-5.92-1.64c-0.14,6.06,4.2,11.72,10.49,12.99c-1.84,0.5-3.86,0.61-5.9,0.22
		c1.66,5.2,6.49,8.97,12.21,9.08C24.64,61.56,17.72,63.49,10.78,62.67z"/>
</g>
</svg>
